<svg id="Layer_1" data-name="Layer 1" xmlns="http://www.w3.org/2000/svg" viewBox="0 0 7.86 7.27"><defs><style>.cls-1{fill:#263239;}</style></defs><path class="cls-1" d="M6.52,3.68h0a3.08,3.08,0,0,0-.09-.75l-.16-.05L6.12,2.8a2.49,2.49,0,0,1-.51-.27l-.12-.09h0a3.13,3.13,0,0,1-.42-.39,3.88,3.88,0,0,1-.42.39h0l-.11.09A2.49,2.49,0,0,1,4,2.8l-.15.06-.16.05a3.66,3.66,0,0,0-.1.75h0v.07a3.49,3.49,0,0,0,.06.65,4.07,4.07,0,0,0,.13.5,1.07,1.07,0,0,0,.07.19,3.54,3.54,0,0,0,.23.48,4.25,4.25,0,0,0,.43.59,3.68,3.68,0,0,0,.54.5,3.68,3.68,0,0,0,.54-.5,3.09,3.09,0,0,1-.54-.48,2.42,2.42,0,0,1-.42-.62l-.08-.15.24-.09.26-.12.26.12.24.09a4,4,0,0,0,.7.18c0-.06.05-.12.07-.19a4.07,4.07,0,0,0,.13-.5,3.49,3.49,0,0,0,.06-.65A.17.17,0,0,0,6.52,3.68ZM5.79,4a1.64,1.64,0,0,1,0,.23,3.6,3.6,0,0,1-.69-.32h0a3.6,3.6,0,0,1-.69.32l0-.23c0-.07,0-.15,0-.23s0-.16,0-.23a.22.22,0,0,0,0-.08l.06,0A3.25,3.25,0,0,0,5,3.09L5.07,3l.09.07a3.25,3.25,0,0,0,.57.33l.06,0v.08a1.69,1.69,0,0,1,0,.23A1.69,1.69,0,0,1,5.79,4Z" transform="translate(-1.14 -1.06)"/><path class="cls-1" d="M9,1.43a2.52,2.52,0,0,1-.53.5h0a2.09,2.09,0,0,1-.73.32.65.65,0,0,1,0,.13A5.78,5.78,0,0,1,7.9,3,4.4,4.4,0,0,1,8,3.68a.17.17,0,0,1,0,.07,4.91,4.91,0,0,1,0,.67,5.42,5.42,0,0,1-.14.7v0a6.43,6.43,0,0,1-.29.77,5.71,5.71,0,0,1-.43.72,4.86,4.86,0,0,1-.54.66,5.91,5.91,0,0,1-.66.56,5.14,5.14,0,0,1-.78.46,4.7,4.7,0,0,1-.78-.46,5.13,5.13,0,0,1-.66-.56,4.86,4.86,0,0,1-.54-.66,4,4,0,0,1-.43-.72,6.43,6.43,0,0,1-.29-.77v0a5.42,5.42,0,0,1-.14-.7,4.91,4.91,0,0,1-.05-.67V3.68A4.4,4.4,0,0,1,2.24,3a3.86,3.86,0,0,1,.12-.57.65.65,0,0,1,0-.13,2,2,0,0,1-.73-.32,2.11,2.11,0,0,1-.53-.5,2.82,2.82,0,0,1,.63-.37,1.48,1.48,0,0,0,.59.43l.3.08h0l.22,0,.23,0h0a1.69,1.69,0,0,0,.43-.15,1.14,1.14,0,0,0,.23-.15A1.45,1.45,0,0,0,4,1.06a3.15,3.15,0,0,1,.51.28l.11.09h0a2.28,2.28,0,0,1-.53.5h0a2.18,2.18,0,0,1-.64.29l-.31,0h0A3.41,3.41,0,0,0,3,2.87L3,3a4.2,4.2,0,0,0-.06.72A4.37,4.37,0,0,0,3,4.47a3.55,3.55,0,0,0,.19.71v0a4,4,0,0,0,.3.67,4.55,4.55,0,0,0,.43.62,3.58,3.58,0,0,0,.54.56,3.93,3.93,0,0,0,.66.47,4.39,4.39,0,0,0,.66-.47,3.58,3.58,0,0,0,.54-.56,3.75,3.75,0,0,0,.42-.62A4.07,4.07,0,0,0,7,5.2v0a4.35,4.35,0,0,0,.18-.71,4.39,4.39,0,0,0,.07-.72A4.18,4.18,0,0,0,7.18,3a.41.41,0,0,0,0-.16A3.4,3.4,0,0,0,7,2.3H7l-.31,0A2.18,2.18,0,0,1,6.05,2H6a2.28,2.28,0,0,1-.53-.5h0l.12-.09a3.15,3.15,0,0,1,.51-.28,1.1,1.1,0,0,0,.22.21,1.14,1.14,0,0,0,.23.15A1.57,1.57,0,0,0,7,1.57H7l.23,0,.22,0h0l.31-.08a1.48,1.48,0,0,0,.59-.43A2.82,2.82,0,0,1,9,1.43Z" transform="translate(-1.14 -1.06)"/></svg>